<?xml version="1.0" encoding="UTF-8"?>
<!--Generator: Apple Native CoreSVG 326-->
<!DOCTYPE svg
PUBLIC "-//W3C//DTD SVG 1.1//EN"
       "http://www.w3.org/Graphics/SVG/1.1/DTD/svg11.dtd">
<svg version="1.1" xmlns="http://www.w3.org/2000/svg" xmlns:xlink="http://www.w3.org/1999/xlink" viewBox="0 0 219.141 219.248">
 <g>
  <rect height="219.248" opacity="0" width="219.141" x="0" y="0"/>
  <path d="M219.141 109.57C219.141 169.941 170.049 219.141 109.57 219.141C49.1992 219.141 0 169.941 0 109.57C0 49.0918 49.1992 0 109.57 0C170.049 0 219.141 49.0918 219.141 109.57ZM103.232 56.6113L66.709 91.8457C64.9902 93.457 64.0234 95.2832 64.0234 97.7539C64.0234 102.158 67.4609 105.488 71.9727 105.488C74.2285 105.488 76.5918 104.629 78.2031 102.803L95.0684 84.8633L101.514 78.0957L100.762 94.6387L100.762 156.836C100.762 161.562 104.844 165.43 109.678 165.43C114.512 165.43 118.486 161.562 118.486 156.836L118.486 94.6387L117.842 78.0957L124.18 84.8633L141.152 102.803C142.656 104.629 144.912 105.488 147.168 105.488C151.68 105.488 155.225 102.158 155.225 97.7539C155.225 95.2832 154.258 93.457 152.539 91.8457L116.123 56.6113C113.76 54.3555 111.934 53.7109 109.678 53.7109C107.314 53.7109 105.488 54.3555 103.232 56.6113Z" fill="black" fill-opacity="0.85"/>
 </g>
</svg>
