<?xml version="1.0" encoding="UTF-8"?>
<!--Generator: Apple Native CoreSVG 326-->
<!DOCTYPE svg
PUBLIC "-//W3C//DTD SVG 1.1//EN"
       "http://www.w3.org/Graphics/SVG/1.1/DTD/svg11.dtd">
<svg version="1.1" xmlns="http://www.w3.org/2000/svg" xmlns:xlink="http://www.w3.org/1999/xlink" viewBox="0 0 282.734 237.725">
 <g>
  <rect height="237.725" opacity="0" width="282.734" x="0" y="0"/>
  <path d="M0 110.645C0 149.854 26.8555 175.85 67.1387 175.85C106.777 175.85 133.311 152.539 133.311 117.412C133.311 102.803 128.154 90.9863 119.561 83.5742C115.586 80.3516 113.33 79.1699 109.57 79.1699C104.629 79.1699 101.191 82.1777 101.191 86.582C101.191 91.9531 104.307 93.3496 109.248 97.8613C113.76 102.266 116.338 108.926 116.338 117.09C116.338 142.012 96.7871 158.662 67.4609 158.662C37.3828 158.662 17.2949 139.434 17.2949 110.537C17.2949 93.9941 25.6738 78.418 39.4238 69.502L30.8301 54.5703C11.709 66.4941 0 87.8711 0 110.645ZM29.0039 54.6777C29.0039 78.7402 45.6543 95.7129 71.9727 95.7129C76.5918 95.7129 80.5664 91.8457 80.5664 87.1191C80.5664 82.3926 76.5918 78.418 71.9727 78.418C56.0742 78.418 46.2988 68.4277 46.2988 54.6777C46.2988 39.4238 58.8672 28.7891 75.7324 28.7891C83.5742 28.7891 91.9531 31.1523 99.6875 36.416L109.785 22.3438C99.043 14.8242 87.1191 11.4941 75.8398 11.4941C49.8438 11.4941 29.0039 29.2188 29.0039 54.6777ZM86.2598 51.7773C86.0449 57.3633 89.8047 61.123 94.7461 61.123C99.4727 61.123 103.125 58.0078 103.34 52.5293C104.092 32.1191 118.916 17.1875 139.756 17.1875C152.324 17.1875 163.281 23.8477 167.686 33.7305C168.545 35.3418 169.727 35.4492 171.768 34.8047C175.312 33.8379 179.287 33.3008 183.154 33.3008C202.383 33.5156 220.645 48.0176 220.645 71.1133C220.645 121.602 149.746 114.619 149.746 163.818C149.746 187.236 168.33 201.953 192.393 201.953C194.971 201.953 197.764 201.738 200.557 201.631C203.027 219.893 214.521 237.617 233.105 237.617C259.961 237.617 273.066 204.961 273.066 173.164C273.066 159.307 272.314 149.961 271.348 141.152L254.053 145.986C255.02 154.58 255.879 162.637 255.879 172.949C255.879 199.053 245.996 220.322 233.105 220.322C219.785 220.322 214.414 202.598 214.414 188.525C214.414 187.344 213.77 186.592 212.266 186.699C209.258 186.699 205.176 186.807 202.49 186.807C181.113 186.807 167.041 180.146 167.041 163.496C167.041 124.287 237.939 133.096 237.939 71.1133C237.939 38.0273 213.447 16.0059 185.41 16.0059C183.262 16.0059 180.254 16.4355 177.246 17.0801C168.652 6.44531 154.902 0 139.863 0C109.355 0 87.5488 21.377 86.2598 51.7773ZM212.588 157.158C212.588 161.992 216.455 165.43 221.289 165.752C258.135 168.115 282.734 146.523 282.734 111.611C282.734 83.0371 262.432 61.2305 231.924 57.1484L229.238 74.3359C250.938 74.6582 265.439 89.4824 265.439 111.611C265.439 135.781 247.715 150.605 221.289 148.564C216.455 148.135 212.588 152.432 212.588 157.158ZM157.373 171.123C151.035 173.379 143.623 174.453 136.641 174.453C118.486 174.453 100.01 167.363 92.9199 156.406L78.6328 168.008C89.9121 182.08 110.322 191.748 134.814 191.748C143.623 191.748 153.506 190.459 163.281 187.666ZM122.891 95.2832L128.691 111.719C155.762 106.348 167.9 89.375 167.9 64.2383C167.9 59.5117 163.926 55.6445 159.199 55.6445C154.473 55.6445 150.605 59.5117 150.605 64.2383C150.605 81.9629 143.086 92.3828 122.891 95.2832Z" fill="black" fill-opacity="0.85"/>
 </g>
</svg>
