<?xml version="1.0" encoding="UTF-8"?>
<!--Generator: Apple Native CoreSVG 326-->
<!DOCTYPE svg
PUBLIC "-//W3C//DTD SVG 1.1//EN"
       "http://www.w3.org/Graphics/SVG/1.1/DTD/svg11.dtd">
<svg version="1.1" xmlns="http://www.w3.org/2000/svg" xmlns:xlink="http://www.w3.org/1999/xlink" viewBox="0 0 219.141 219.248">
 <g>
  <rect height="219.248" opacity="0" width="219.141" x="0" y="0"/>
  <path d="M109.57 219.141C170.049 219.141 219.141 170.049 219.141 109.57C219.141 49.0918 170.049 0 109.57 0C49.0918 0 0 49.0918 0 109.57C0 170.049 49.0918 219.141 109.57 219.141ZM109.57 200.879C59.082 200.879 18.2617 160.059 18.2617 109.57C18.2617 59.082 59.082 18.2617 109.57 18.2617C160.059 18.2617 200.879 59.082 200.879 109.57C200.879 160.059 160.059 200.879 109.57 200.879Z" fill="black" fill-opacity="0.85"/>
  <path d="M84.0039 167.363L140.078 167.363C152.002 167.363 157.91 161.24 157.91 149.209L157.91 103.018L115.371 103.018C107.959 103.018 104.414 99.5801 104.414 92.168L104.414 48.877L84.0039 48.877C72.1875 48.877 66.1719 55 66.1719 67.0312L66.1719 149.209C66.1719 161.348 72.1875 167.363 84.0039 167.363ZM116.23 94.3164L157.266 94.3164C156.943 91.9531 155.225 89.5898 152.432 86.7969L120.635 54.3555C117.949 51.5625 115.479 49.8438 113.115 49.5215L113.115 91.2012C113.115 93.2422 114.189 94.3164 116.23 94.3164Z" fill="black" fill-opacity="0.85"/>
 </g>
</svg>
