<?xml version="1.0" encoding="UTF-8"?>
<!--Generator: Apple Native CoreSVG 326-->
<!DOCTYPE svg
PUBLIC "-//W3C//DTD SVG 1.1//EN"
       "http://www.w3.org/Graphics/SVG/1.1/DTD/svg11.dtd">
<svg version="1.1" xmlns="http://www.w3.org/2000/svg" xmlns:xlink="http://www.w3.org/1999/xlink" viewBox="0 0 219.141 219.248">
 <g>
  <rect height="219.248" opacity="0" width="219.141" x="0" y="0"/>
  <path d="M109.57 219.141C170.049 219.141 219.141 170.049 219.141 109.57C219.141 49.0918 170.049 0 109.57 0C49.0918 0 0 49.0918 0 109.57C0 170.049 49.0918 219.141 109.57 219.141ZM109.57 200.879C59.082 200.879 18.2617 160.059 18.2617 109.57C18.2617 59.082 59.082 18.2617 109.57 18.2617C160.059 18.2617 200.879 59.082 200.879 109.57C200.879 160.059 160.059 200.879 109.57 200.879Z" fill="black" fill-opacity="0.85"/>
  <path d="M59.7266 109.57C59.7266 114.834 63.3789 118.379 68.8574 118.379L100.439 118.379L100.439 150.068C100.439 155.439 104.092 159.199 109.355 159.199C114.727 159.199 118.486 155.547 118.486 150.068L118.486 118.379L150.176 118.379C155.547 118.379 159.307 114.834 159.307 109.57C159.307 104.199 155.547 100.439 150.176 100.439L118.486 100.439L118.486 68.8574C118.486 63.3789 114.727 59.6191 109.355 59.6191C104.092 59.6191 100.439 63.3789 100.439 68.8574L100.439 100.439L68.8574 100.439C63.3789 100.439 59.7266 104.199 59.7266 109.57Z" fill="black" fill-opacity="0.85"/>
 </g>
</svg>
